<?xml version="1.0" encoding="UTF-8" standalone="no"?>
<!DOCTYPE svg PUBLIC "-//W3C//DTD SVG 1.1//EN"
 "http://www.w3.org/Graphics/SVG/1.1/DTD/svg11.dtd">
<!-- Generated by graphviz version 2.40.1 (20161225.0304)
 -->
<!-- Title: emigre Pages: 1 -->
<svg width="290pt" height="309pt"
 viewBox="0.00 0.00 290.00 309.00" xmlns="http://www.w3.org/2000/svg" xmlns:xlink="http://www.w3.org/1999/xlink">
<g id="graph0" class="graph" transform="scale(1 1) rotate(0) translate(4 305)">
<title>emigre</title>
<polygon fill="#ffffff" stroke="transparent" points="-4,4 -4,-305 286,-305 286,4 -4,4"/>
<!-- user -->
<g id="node1" class="node">
<title>user</title>
<polygon fill="#efefef" stroke="transparent" points="43,-222.5 43,-257.5 239,-257.5 239,-222.5 43,-222.5"/>
<polygon fill="none" stroke="#000000" points="43,-222.5 43,-257.5 239,-257.5 239,-222.5 43,-222.5"/>
<text text-anchor="start" x="59.7137" y="-235.3" font-family="Arial Bold" font-size="18.00" fill="#000000">user</text>
<text text-anchor="start" x="94.7183" y="-235.3" font-family="Arial" font-size="14.00" fill="#000000">    </text>
<text text-anchor="start" x="128.9231" y="-235.3" font-family="Arial" font-size="14.00" fill="#666666">[BASE TABLE]</text>
<polygon fill="none" stroke="#000000" points="43,-192.5 43,-222.5 239,-222.5 239,-192.5 43,-192.5"/>
<text text-anchor="start" x="50" y="-203.9" font-family="Arial" font-size="14.00" fill="#000000">id    </text>
<text text-anchor="start" x="95.094" y="-203.9" font-family="Arial" font-size="14.00" fill="#666666">[varchar(191)]</text>
<polygon fill="none" stroke="#000000" points="43,-162.5 43,-192.5 239,-192.5 239,-162.5 43,-162.5"/>
<text text-anchor="start" x="50" y="-173.9" font-family="Arial" font-size="14.00" fill="#000000">name    </text>
<text text-anchor="start" x="119.2132" y="-173.9" font-family="Arial" font-size="14.00" fill="#666666">[varchar(20)]</text>
<polygon fill="none" stroke="#000000" points="43,-132.5 43,-162.5 239,-162.5 239,-132.5 43,-132.5"/>
<text text-anchor="start" x="49.6066" y="-143.9" font-family="Arial" font-size="14.00" fill="#000000">biography    </text>
<text text-anchor="start" x="145.2742" y="-143.9" font-family="Arial" font-size="14.00" fill="#666666">[varchar(300)]</text>
<polygon fill="none" stroke="#000000" points="43,-102.5 43,-132.5 239,-132.5 239,-102.5 43,-102.5"/>
<text text-anchor="start" x="50" y="-113.9" font-family="Arial" font-size="14.00" fill="#000000">email    </text>
<text text-anchor="start" x="117.6438" y="-113.9" font-family="Arial" font-size="14.00" fill="#666666">[varchar(256)]</text>
<polygon fill="none" stroke="#000000" points="43,-72.5 43,-102.5 239,-102.5 239,-72.5 43,-72.5"/>
<text text-anchor="start" x="50" y="-83.9" font-family="Arial" font-size="14.00" fill="#000000">created_at    </text>
<text text-anchor="start" x="150.3422" y="-83.9" font-family="Arial" font-size="14.00" fill="#666666">[datetime]</text>
<polygon fill="none" stroke="#000000" points="43,-42.5 43,-72.5 239,-72.5 239,-42.5 43,-42.5"/>
<text text-anchor="start" x="50" y="-53.9" font-family="Arial" font-size="14.00" fill="#000000">updated_at    </text>
<text text-anchor="start" x="154.2468" y="-53.9" font-family="Arial" font-size="14.00" fill="#666666">[datetime]</text>
</g>
</g>
</svg>
